<svg width="62" height="14" viewBox="0 0 62 14" fill="none" xmlns="http://www.w3.org/2000/svg">
<path d="M12.835 12.28C11.587 12.872 10.727 13.168 10.255 13.168C9.95895 13.168 9.50295 12.852 8.88695 12.22C8.27895 11.596 7.58695 10.832 6.81095 9.928C6.27495 10.136 5.76295 10.24 5.27495 10.24C4.42695 10.24 3.67495 10.04 3.01895 9.64C2.37095 9.232 1.86695 8.668 1.50695 7.948C1.14695 7.228 0.966953 6.412 0.966953 5.5C0.966953 4.564 1.23895 3.7 1.78295 2.908C2.32695 2.108 3.00295 1.48 3.81095 1.024C4.61895 0.559999 5.39095 0.327999 6.12695 0.327999C6.97495 0.327999 7.72295 0.531999 8.37095 0.939999C9.02695 1.348 9.53495 1.912 9.89495 2.632C10.255 3.352 10.435 4.168 10.435 5.08C10.435 6 10.171 6.852 9.64295 7.636C9.11495 8.42 8.44695 9.048 7.63895 9.52C8.39095 10.088 9.09495 10.6 9.75095 11.056C10.415 11.512 10.819 11.74 10.963 11.74H12.583L12.835 12.28ZM2.59895 4.924C2.59895 5.708 2.72295 6.428 2.97095 7.084C3.21895 7.732 3.59495 8.252 4.09895 8.644C4.61095 9.036 5.23895 9.232 5.98295 9.232C6.51095 9.232 6.99095 9.08 7.42295 8.776C7.86295 8.464 8.20695 8.036 8.45495 7.492C8.70295 6.94 8.82695 6.324 8.82695 5.644C8.82695 4.852 8.70295 4.132 8.45495 3.484C8.20695 2.828 7.83095 2.308 7.32695 1.924C6.82295 1.532 6.19495 1.336 5.44295 1.336C4.91495 1.336 4.43095 1.492 3.99095 1.804C3.55895 2.108 3.21895 2.536 2.97095 3.088C2.72295 3.632 2.59895 4.244 2.59895 4.924ZM20.5475 1.828V6.28C20.5475 7.12 20.3435 7.84 19.9355 8.44C19.5355 9.04 19.0395 9.492 18.4475 9.796C17.8555 10.092 17.2755 10.24 16.7075 10.24C15.9955 10.24 15.3555 10.084 14.7875 9.772C14.2275 9.452 13.7875 9.016 13.4675 8.464C13.1555 7.904 12.9995 7.276 12.9995 6.58V1.468L11.7515 1.048L11.9915 0.568H15.6395V0.939999L14.4995 1.828V6.004C14.4995 7.02 14.7475 7.812 15.2435 8.38C15.7475 8.948 16.5075 9.232 17.5235 9.232C17.8995 9.232 18.2675 9.112 18.6275 8.872C18.9955 8.624 19.2955 8.264 19.5275 7.792C19.7675 7.32 19.8875 6.764 19.8875 6.124V1.672L18.6395 1.048L18.8795 0.568H21.6875V0.939999L20.5475 1.828ZM32.2527 10H28.6047V9.628L29.7327 8.752L28.8087 6.532H24.7767L23.7927 8.8L25.9047 9.52L25.6647 10H22.0167V9.628L23.1447 8.74L26.5407 0.952L27.7887 0.339999L31.2927 8.788L32.4927 9.52L32.2527 10ZM26.8407 1.78L25.0167 5.992H28.5927L26.8407 1.78ZM41.3621 1.84V10.012H40.7021L35.0021 2.8V8.896L36.2621 9.532L36.0221 10.012H33.2141V9.64L34.3421 8.752V1.72L33.0941 1.048L33.3341 0.568H35.1461L40.7021 7.6V1.672L39.4541 1.048L39.6941 0.568H42.5021V0.952L41.3621 1.84ZM51.8504 1.84V10.012H51.1904L45.4904 2.8V8.896L46.7504 9.532L46.5104 10.012H43.7024V9.64L44.8304 8.752V1.72L43.5824 1.048L43.8224 0.568H45.6344L51.1904 7.6V1.672L49.9424 1.048L50.1824 0.568H52.9904V0.952L51.8504 1.84ZM59.4947 7.876C59.4947 7.628 59.3947 7.396 59.1947 7.18C58.9947 6.964 58.7427 6.768 58.4387 6.592C58.1427 6.408 57.7387 6.184 57.2267 5.92C56.6187 5.6 56.1307 5.328 55.7627 5.104C55.3947 4.872 55.0787 4.6 54.8147 4.288C54.5587 3.976 54.4307 3.632 54.4307 3.256C54.4307 2.856 54.5987 2.428 54.9347 1.972C55.2707 1.508 55.6787 1.12 56.1587 0.808C56.6467 0.487999 57.0947 0.327999 57.5027 0.327999C57.9987 0.327999 58.5747 0.388 59.2307 0.508C59.8867 0.628 60.3667 0.756 60.6707 0.891999V3.22H60.2147C59.8227 2.572 59.3907 2.068 58.9187 1.708C58.4547 1.348 57.9667 1.168 57.4547 1.168C56.9987 1.168 56.6347 1.312 56.3627 1.6C56.0987 1.88 55.9667 2.248 55.9667 2.704C55.9667 2.968 56.0667 3.216 56.2667 3.448C56.4747 3.672 56.7267 3.872 57.0227 4.048C57.3267 4.224 57.7467 4.452 58.2827 4.732C58.8747 5.028 59.3547 5.292 59.7227 5.524C60.0907 5.748 60.3987 6.012 60.6467 6.316C60.9027 6.612 61.0307 6.948 61.0307 7.324C61.0307 7.724 60.8507 8.156 60.4907 8.62C60.1307 9.076 59.6907 9.464 59.1707 9.784C58.6587 10.096 58.1907 10.252 57.7667 10.252C57.2467 10.252 56.6267 10.192 55.9067 10.072C55.1947 9.952 54.6827 9.824 54.3707 9.688V7.36H54.8267C55.2347 8.008 55.6987 8.512 56.2187 8.872C56.7387 9.232 57.2747 9.412 57.8267 9.412C58.1547 9.412 58.4467 9.34 58.7027 9.196C58.9587 9.052 59.1547 8.864 59.2907 8.632C59.4267 8.392 59.4947 8.14 59.4947 7.876Z" fill="black"/>
</svg>
